<mxfile host="Electron" modified="2023-12-11T15:36:40.772Z" agent="Mozilla/5.0 (X11; Linux x86_64) AppleWebKit/537.36 (KHTML, like Gecko) draw.io/21.6.1 Chrome/112.0.5615.204 Electron/24.6.1 Safari/537.36" etag="_DvMfBJtys8H005TQW6n" version="21.6.1" type="device">
  <diagram name="Page-1" id="OCD1pQ2lFyb5-pAs6mBr">
    <mxGraphModel dx="1506" dy="915" grid="1" gridSize="10" guides="1" tooltips="1" connect="1" arrows="1" fold="1" page="1" pageScale="1" pageWidth="850" pageHeight="1100" math="1" shadow="0">
      <root>
        <mxCell id="0" />
        <mxCell id="1" parent="0" />
        <mxCell id="sD0XBtN898RwaV4NvgBG-8" value="200ms" style="rounded=0;whiteSpace=wrap;html=1;fillColor=#d5e8d4;strokeColor=#82b366;" parent="1" vertex="1">
          <mxGeometry x="230" y="80" width="80" height="30" as="geometry" />
        </mxCell>
        <mxCell id="sD0XBtN898RwaV4NvgBG-13" value="75ms" style="rounded=0;whiteSpace=wrap;html=1;fillColor=#d5e8d4;strokeColor=#82b366;" parent="1" vertex="1">
          <mxGeometry x="500" y="80" width="30" height="30" as="geometry" />
        </mxCell>
        <mxCell id="sD0XBtN898RwaV4NvgBG-15" value="75ms" style="rounded=0;whiteSpace=wrap;html=1;fillColor=#d5e8d4;strokeColor=#82b366;" parent="1" vertex="1">
          <mxGeometry x="540" y="80" width="30" height="30" as="geometry" />
        </mxCell>
        <mxCell id="sD0XBtN898RwaV4NvgBG-16" value="75ms" style="rounded=0;whiteSpace=wrap;html=1;fillColor=#d5e8d4;strokeColor=#82b366;" parent="1" vertex="1">
          <mxGeometry x="580" y="80" width="30" height="30" as="geometry" />
        </mxCell>
        <mxCell id="sD0XBtN898RwaV4NvgBG-19" value="150ms" style="rounded=0;whiteSpace=wrap;html=1;fillColor=#d5e8d4;strokeColor=#82b366;" parent="1" vertex="1">
          <mxGeometry x="621.5" y="80" width="60" height="30" as="geometry" />
        </mxCell>
        <mxCell id="sD0XBtN898RwaV4NvgBG-20" value="200ms" style="rounded=0;whiteSpace=wrap;html=1;fillColor=#d5e8d4;strokeColor=#82b366;" parent="1" vertex="1">
          <mxGeometry x="320" y="80" width="80" height="30" as="geometry" />
        </mxCell>
        <mxCell id="sD0XBtN898RwaV4NvgBG-21" value="200ms" style="rounded=0;whiteSpace=wrap;html=1;fillColor=#d5e8d4;strokeColor=#82b366;" parent="1" vertex="1">
          <mxGeometry x="410" y="80" width="80" height="30" as="geometry" />
        </mxCell>
        <mxCell id="sD0XBtN898RwaV4NvgBG-24" value="150ms" style="rounded=0;whiteSpace=wrap;html=1;fillColor=#d5e8d4;strokeColor=#82b366;" parent="1" vertex="1">
          <mxGeometry x="691.5" y="80" width="60" height="30" as="geometry" />
        </mxCell>
        <mxCell id="sD0XBtN898RwaV4NvgBG-25" value="150ms" style="rounded=0;whiteSpace=wrap;html=1;fillColor=#d5e8d4;strokeColor=#82b366;" parent="1" vertex="1">
          <mxGeometry x="761.5" y="80" width="60" height="30" as="geometry" />
        </mxCell>
        <mxCell id="dyOHYiIMp45q6dB9HG6w-65" value="&lt;font style=&quot;font-size: 14px;&quot;&gt;Given task distribution&lt;/font&gt;" style="text;html=1;strokeColor=none;fillColor=none;align=center;verticalAlign=middle;whiteSpace=wrap;rounded=0;fontStyle=1" parent="1" vertex="1">
          <mxGeometry x="40" y="40" width="170" height="30" as="geometry" />
        </mxCell>
        <mxCell id="VSx_z2v5BgDucxLoZLZk-1" value="100ms" style="rounded=0;whiteSpace=wrap;html=1;fillColor=#d5e8d4;strokeColor=#82b366;" vertex="1" parent="1">
          <mxGeometry x="80" y="80" width="40" height="30" as="geometry" />
        </mxCell>
        <mxCell id="VSx_z2v5BgDucxLoZLZk-2" value="100ms" style="rounded=0;whiteSpace=wrap;html=1;fillColor=#d5e8d4;strokeColor=#82b366;" vertex="1" parent="1">
          <mxGeometry x="130" y="80" width="40" height="30" as="geometry" />
        </mxCell>
        <mxCell id="VSx_z2v5BgDucxLoZLZk-3" value="100ms" style="rounded=0;whiteSpace=wrap;html=1;fillColor=#d5e8d4;strokeColor=#82b366;" vertex="1" parent="1">
          <mxGeometry x="180" y="80" width="40" height="30" as="geometry" />
        </mxCell>
        <mxCell id="VSx_z2v5BgDucxLoZLZk-6" value="1&lt;br&gt;0&lt;br&gt;0&lt;br&gt;0" style="text;html=1;strokeColor=none;fillColor=none;align=center;verticalAlign=middle;whiteSpace=wrap;rounded=0;" vertex="1" parent="1">
          <mxGeometry x="80" y="110" width="40" height="60" as="geometry" />
        </mxCell>
        <mxCell id="VSx_z2v5BgDucxLoZLZk-7" value="1&lt;br&gt;0&lt;br&gt;0&lt;br&gt;0" style="text;html=1;strokeColor=none;fillColor=none;align=center;verticalAlign=middle;whiteSpace=wrap;rounded=0;" vertex="1" parent="1">
          <mxGeometry x="130" y="110" width="40" height="60" as="geometry" />
        </mxCell>
        <mxCell id="VSx_z2v5BgDucxLoZLZk-8" value="1&lt;br&gt;0&lt;br&gt;0&lt;br&gt;0" style="text;html=1;strokeColor=none;fillColor=none;align=center;verticalAlign=middle;whiteSpace=wrap;rounded=0;" vertex="1" parent="1">
          <mxGeometry x="180" y="110" width="40" height="60" as="geometry" />
        </mxCell>
        <mxCell id="VSx_z2v5BgDucxLoZLZk-9" value="0&lt;br&gt;1&lt;br&gt;0&lt;br&gt;0" style="text;html=1;strokeColor=none;fillColor=none;align=center;verticalAlign=middle;whiteSpace=wrap;rounded=0;" vertex="1" parent="1">
          <mxGeometry x="230" y="110" width="40" height="60" as="geometry" />
        </mxCell>
        <mxCell id="VSx_z2v5BgDucxLoZLZk-12" value="0&lt;br&gt;1&lt;br&gt;0&lt;br&gt;0" style="text;html=1;strokeColor=none;fillColor=none;align=center;verticalAlign=middle;whiteSpace=wrap;rounded=0;" vertex="1" parent="1">
          <mxGeometry x="320" y="110" width="40" height="60" as="geometry" />
        </mxCell>
        <mxCell id="VSx_z2v5BgDucxLoZLZk-13" value="0&lt;br&gt;1&lt;br&gt;0&lt;br&gt;0" style="text;html=1;strokeColor=none;fillColor=none;align=center;verticalAlign=middle;whiteSpace=wrap;rounded=0;" vertex="1" parent="1">
          <mxGeometry x="410" y="110" width="40" height="60" as="geometry" />
        </mxCell>
        <mxCell id="VSx_z2v5BgDucxLoZLZk-14" value="0&lt;br&gt;0&lt;br&gt;1&lt;br&gt;0" style="text;html=1;strokeColor=none;fillColor=none;align=center;verticalAlign=middle;whiteSpace=wrap;rounded=0;" vertex="1" parent="1">
          <mxGeometry x="495" y="110" width="40" height="60" as="geometry" />
        </mxCell>
        <mxCell id="VSx_z2v5BgDucxLoZLZk-15" value="0&lt;br&gt;0&lt;br&gt;1&lt;br&gt;0" style="text;html=1;strokeColor=none;fillColor=none;align=center;verticalAlign=middle;whiteSpace=wrap;rounded=0;" vertex="1" parent="1">
          <mxGeometry x="535" y="110" width="40" height="60" as="geometry" />
        </mxCell>
        <mxCell id="VSx_z2v5BgDucxLoZLZk-16" value="0&lt;br&gt;0&lt;br&gt;1&lt;br&gt;0" style="text;html=1;strokeColor=none;fillColor=none;align=center;verticalAlign=middle;whiteSpace=wrap;rounded=0;" vertex="1" parent="1">
          <mxGeometry x="575" y="110" width="40" height="60" as="geometry" />
        </mxCell>
        <mxCell id="VSx_z2v5BgDucxLoZLZk-17" value="0&lt;br&gt;0&lt;br&gt;0&lt;br&gt;1" style="text;html=1;strokeColor=none;fillColor=none;align=center;verticalAlign=middle;whiteSpace=wrap;rounded=0;" vertex="1" parent="1">
          <mxGeometry x="621.5" y="110" width="40" height="60" as="geometry" />
        </mxCell>
        <mxCell id="VSx_z2v5BgDucxLoZLZk-18" value="0&lt;br&gt;0&lt;br&gt;0&lt;br&gt;1" style="text;html=1;strokeColor=none;fillColor=none;align=center;verticalAlign=middle;whiteSpace=wrap;rounded=0;" vertex="1" parent="1">
          <mxGeometry x="691.5" y="110" width="40" height="60" as="geometry" />
        </mxCell>
        <mxCell id="VSx_z2v5BgDucxLoZLZk-19" value="0&lt;br&gt;0&lt;br&gt;0&lt;br&gt;1" style="text;html=1;strokeColor=none;fillColor=none;align=center;verticalAlign=middle;whiteSpace=wrap;rounded=0;" vertex="1" parent="1">
          <mxGeometry x="761.5" y="110" width="40" height="60" as="geometry" />
        </mxCell>
        <mxCell id="VSx_z2v5BgDucxLoZLZk-20" value="&lt;font style=&quot;font-size: 14px;&quot;&gt;y = 1000 1000 1000 0100 0100 0100 0010 0010 0010 0001 0001 0001&lt;/font&gt;" style="text;html=1;strokeColor=none;fillColor=none;align=left;verticalAlign=middle;whiteSpace=wrap;rounded=0;fontStyle=1" vertex="1" parent="1">
          <mxGeometry x="80" y="190" width="460" height="40" as="geometry" />
        </mxCell>
      </root>
    </mxGraphModel>
  </diagram>
</mxfile>
